<svg xmlns="http://www.w3.org/2000/svg" viewBox="0 0 375.16 225.459" width="315.16px" height="165.46px">
  <defs></defs>
  <g transform="matrix(1, 0, 0, 1, -190.567, -679.044)">
    <rect x="220.567" y="709.044" width="315.16" height="165.459" rx="82.0014" ry="82.0014"></rect>
    <path style="stroke: rgb(0, 0, 0); stroke-width: 1.9131; fill: rgb(255, 255, 255);" d="M 237.2051 770.7221 L 516.818 771.22 C 516.818 771.22 517.8297 741.0662 481.3321 723.2606 C 474.8348 720.0908 467.2425 718.8453 459.1807 718.071 L 299.1206 719.3238 C 293.3951 719.5204 279.1295 723.2606 279.1295 723.2606 C 255.2352 730.8718 236.0703 755.9954 237.2051 770.7221 Z"></path>
    <path d="M 463.24 853.473 C 463.24 874.36 429.188 859.776 385.238 859.776 C 341.288 859.776 304.084 874.36 304.084 853.473 C 304.084 832.586 339.712 815.654 383.662 815.654 C 427.612 815.654 463.24 832.586 463.24 853.473 Z" style="stroke: rgb(0, 0, 0); stroke-width: 3px; fill: rgb(218, 96, 85);"></path>
  </g>
</svg>
