<svg xmlns="http://www.w3.org/2000/svg" viewBox="0 0 95.1714 95.1714">
  <defs></defs>
  <ellipse style="stroke-width: 3px; stroke: rgb(132, 132, 132);" cx="47.5857" cy="47.5857" rx="47.5857" ry="47.5857"></ellipse>
  <path style="fill: none; stroke: rgb(40, 190, 0); stroke-miterlimit: 17.92; stroke-width: 1.6623; visibility: hidden;" d="M 1.7346 53.0497 L 2.473 46.5767 L 5.3149 52.6967 L 6.2476 42.6147 L 9.0374 50.6327 L 9.6883 44.5347 C 9.6883 44.5347 12.7179 52.1727 12.7535 52.3007 L 13.699 42.5737 L 17.7404 54.9867 L 19.7895 37.9577 L 22.0348 46.8747 L 24.0121 39.5327 L 25.6529 54.6917 L 27.2671 44.3007 L 30.2273 58.6997 C 30.2273 58.6997 30.9586 51.0837 31.0138 49.8787 C 31.1466 46.9767 33.6415 56.5527 33.6415 56.5527 L 35.5902 40.4587 L 38.6072 58.5707 L 39.1182 40.5577 L 42.0606 56.7477 L 43.9656 45.9647 L 45.8073 58.6897 L 47.8207 53.9657 L 51.0487 58.0067 L 51.9367 45.0237 L 54.8237 58.7777 L 57.2167 41.6127 L 61.3797 56.3567 L 65.3987 45.7457 L 68.7707 55.8807 L 69.9587 49.2537 L 74.0017 58.4737 L 76.5057 44.0077 L 82.1227 57.6347 L 85.5227 42.7647 C 85.5227 42.7647 88.1357 57.7017 88.7517 60.2697 C 88.9507 61.0937 90.4057 45.3687 90.4057 45.3687 L 92.3367 49.5527"></path>
  <path style="fill: none; stroke: rgb(27, 224, 0); stroke-width: 3px;" d="M 6.3833 27.871 C 14.9951 27.1533 11.7238 74.3421 25.7184 74.2369 C 40.1889 74.1281 34.0015 26.7367 48.4725 26.7289 C 62.6562 26.7183 57.1992 74.2838 71.375 74.7842 C 86.3453 75.3136 79.7429 27.9249 88.0368 26.0889"></path>
  <line style="fill: none; stroke-width: 3px; stroke: rgb(121, 121, 121); stroke-dasharray: 1, 5; stroke-opacity: 0.5;" x1="47.142" y1="1.9971" x2="47.142" y2="92.2432"></line>
  <line style="fill: none; stroke-width: 3px; stroke: rgb(121, 121, 121); stroke-dasharray: 1, 5; stroke-opacity: 0.5;" x1="1.5197" y1="47.7448" x2="93.3922" y2="47.7448"></line>
  <line style="fill: none; stroke: rgb(121, 121, 121); stroke-opacity: 0.5; stroke-width: 0.5px;" x1="47.18" y1="2.0808" x2="47.18" y2="92.3268"></line>
  <line style="fill: none; stroke: rgb(121, 121, 121); stroke-opacity: 0.5; stroke-width: 0.5px;" x1="1.5575" y1="47.8288" x2="93.4297" y2="47.8288"></line>
</svg>
